<svg xmlns="http://www.w3.org/2000/svg" width="12" height="12" viewBox="0 0 12 12" fill="none">
    <g clip-path="url(#clip0_6333_13826)">
    <rect opacity="0.2" width="12" height="12" rx="2.25" fill="black"/>
    <path fill-rule="evenodd" clip-rule="evenodd" d="M8.53206 2.06972C9.28201 2.17252 9.88339 2.78615 9.96146 3.52824L10.2298 6.07852C10.2893 6.64453 9.87503 7.12287 9.30441 7.14692C8.73379 7.17097 8.22294 6.73163 8.16339 6.16562L8.08036 5.37641L6.00414 7.35193C5.6039 7.73275 4.94623 7.70146 4.53518 7.28205C4.12413 6.86263 4.11537 6.2139 4.51561 5.83307L6.59182 3.85756L5.79425 3.74823C5.22225 3.66982 4.79448 3.15142 4.83881 2.59036C4.88313 2.02929 5.38276 1.63802 5.95476 1.71643L8.53206 2.06972Z" fill="black"/>
    </g>
    <defs>
    <clipPath id="clip0_6333_13826">
    <rect width="12" height="12" fill="white"/>
    </clipPath>
    </defs>
    </svg>
