<svg xmlns="http://www.w3.org/2000/svg" width="16" height="15" viewBox="0 0 16 15" fill="none">
<path d="M7.99697 9.21971C8.54919 9.21978 8.99697 9.66747 8.99697 10.2197C8.99696 10.772 8.54919 11.2196 7.99697 11.2197C7.44469 11.2197 6.996 10.772 6.99599 10.2197C6.99599 9.66743 7.44468 9.21971 7.99697 9.21971Z" fill="var(--rc-color-grey-text-dark)" fill-opacity="0.9"/>
<path d="M7.99599 4.21971C8.54822 4.21978 8.99599 4.66747 8.99599 5.21971V7.21971C8.99598 7.77195 8.54821 8.21965 7.99599 8.21971C7.44371 8.21971 6.996 7.77199 6.99599 7.21971V5.21971C6.99599 4.66743 7.44371 4.21971 7.99599 4.21971Z" fill="var(--rc-color-grey-text-dark)" fill-opacity="0.9"/>
<path fill-rule="evenodd" clip-rule="evenodd" d="M5.15615 1.63964C6.4187 -0.546529 9.57428 -0.546561 10.8368 1.63964L15.5477 9.79979C16.8097 11.9862 15.2322 14.7192 12.7079 14.7197H3.28505C0.76025 14.7196 -0.818142 11.9864 0.444233 9.79979L5.15615 1.63964ZM9.10537 2.63964C8.61269 1.78643 7.3803 1.78645 6.88759 2.63964L2.17665 10.7998C1.68403 11.6531 2.29983 12.7196 3.28505 12.7197H12.7079C13.6926 12.7192 14.3084 11.6528 13.8163 10.7998L9.10537 2.63964Z" fill="var(--rc-color-grey-text-dark)" fill-opacity="0.9"/>
</svg>